<svg width="21.999999999999996" height="16" xmlns="http://www.w3.org/2000/svg" fill="none">
 <g>
  <title>Layer 1</title>
  <line stroke-linecap="undefined" stroke-linejoin="undefined" id="svg_2" y2="15.31363" x2="0.45148" y1="0.5457" x1="21.29536" fill="#2D2E46"/>
  <path fill-rule="evenodd" clip-rule="evenodd" d="m11,0.5c-5,0 -9.27,3.11 -11,7.5c1.73,4.39 6,7.5 11,7.5c5,0 9.27,-3.11 11,-7.5c-1.73,-4.39 -6,-7.5 -11,-7.5zm0,12.5c-2.76003,0 -5.00003,-2.24 -5.00003,-5c0,-2.76 2.24,-5.00001 5.00003,-5.00001c2.76,0 5,2.24001 5,5.00001c0,2.76 -2.24,5 -5,5zm0,-8c-1.66003,0 -3.00003,1.34 -3.00003,3c0,1.66 1.34,3 3.00003,3c1.66,0 3,-1.34 3,-3c0,-1.66 -1.34,-3 -3,-3z" fill="#2D2E46" id="svg_1"/>
  <line fill="none" x1="21.72992" y1="0.16544" x2="20.34306" y2="1.84427" id="svg_4" stroke="null"/>
  <line fill="none" stroke="null" x1="20.927" y1="1.69829" x2="13.77372" y2="7.5377" id="svg_5"/>
  <line fill="#2D2E46" x1="-8.41605" y1="13.45011" x2="-8.48905" y2="13.37712" id="svg_6"/>
  <line fill="none" x1="1.43796" y1="1.47931" x2="-6.37226" y2="4.18004" id="svg_7"/>
  <line stroke-linecap="undefined" stroke-linejoin="undefined" id="svg_3" y2="0.96764" x2="21.54852" y1="15.56679" x1="0.45148" fill="none"/>
  <line fill="none" stroke="#000" x1="21.3111" y1="0.41481" x2="0.42223" y2="15.5259" id="svg_8" stroke-linejoin="undefined" stroke-linecap="undefined"/>
  <line stroke-linecap="undefined" stroke-linejoin="undefined" id="svg_18" y2="0.71061" x2="21.43955" y1="15.87543" x1="0.67034" stroke="#2D2E46" fill="none"/>
  <line stroke-linecap="undefined" stroke-linejoin="undefined" id="svg_19" y2="24.33696" x2="34.29667" y1="24.11718" x1="34.07689" stroke="#2D2E46" fill="none"/>
 </g>

</svg>